<svg width="40" height="35" viewBox="0 0 40 35" fill="none" xmlns="http://www.w3.org/2000/svg">
<path d="M24.3414 13.8611H17.4711C15.8017 13.8611 14.4397 12.4994 14.4397 10.817C14.4397 10.3631 14.0781 10 13.6261 10H4.65856C2.09123 10 0 12.1 0 14.678V30.322C0 32.9 2.09123 35 4.65856 35H24.3414C26.9088 35 29 32.9 29 30.322V18.533C29 15.955 26.9088 13.8611 24.3414 13.8611ZM27.3728 30.3159C27.3728 31.9923 26.0168 33.36 24.3414 33.36H4.65856C2.98919 33.36 1.62718 31.9983 1.62718 30.3159V14.678C1.62718 13.0017 2.98317 11.634 4.65856 11.634H12.8849C13.2706 13.8247 15.181 15.495 17.4711 15.495H24.3414C26.0108 15.495 27.3728 16.8567 27.3728 18.5391V30.3159Z" fill="#313131"/>
<path fill-rule="evenodd" clip-rule="evenodd" d="M18.225 18C17.2207 17.9997 16.2585 18.4033 15.555 19.12L15 19.68L14.445 19.12C13.7409 18.4042 12.779 18.001 11.775 18.001C10.7709 18.001 9.80898 18.4042 9.10496 19.12C7.63249 20.6228 7.63249 23.0272 9.10496 24.53L15 30.5L20.895 24.53C22.3674 23.0272 22.3674 20.6228 20.895 19.12C20.1914 18.4033 19.2292 17.9997 18.225 18Z" fill="#DF4329"/>
<mask id="maskf" mask-type="alpha" maskUnits="userSpaceOnUse" x="8" y="18" width="14" height="13">
<path fill-rule="evenodd" clip-rule="evenodd" d="M18.225 18C17.2207 17.9997 16.2585 18.4033 15.555 19.12L15 19.68L14.445 19.12C13.7409 18.4042 12.779 18.001 11.775 18.001C10.7709 18.001 9.80898 18.4042 9.10496 19.12C7.63249 20.6228 7.63249 23.0272 9.10496 24.53L15 30.5L20.895 24.53C22.3674 23.0272 22.3674 20.6228 20.895 19.12C20.1914 18.4033 19.2292 17.9997 18.225 18Z" fill="white"/>
</mask>
<g mask="url(#maskf)">
</g>
</svg>
