<svg width="16" height="16" viewBox="0 0 16 16" fill="none" xmlns="http://www.w3.org/2000/svg">
<path fill-rule="evenodd" clip-rule="evenodd" d="M15 14.295L11.225 10.5C13.0997 8.23806 12.8658 4.90218 10.6938 2.92402C8.52178 0.94587 5.17861 1.0239 3.10128 3.10124C1.02394 5.17857 0.94591 8.52174 2.92406 10.6937C4.90222 12.8657 8.2381 13.0996 10.5 11.225L14.295 15L15 14.295ZM2.50001 7C2.50001 4.51472 4.51473 2.5 7.00001 2.5C9.48529 2.5 11.5 4.51472 11.5 7C11.5 9.48528 9.48529 11.5 7.00001 11.5C4.51473 11.5 2.50001 9.48528 2.50001 7Z" fill="white"/>
<mask id="masks" mask-type="alpha" maskUnits="userSpaceOnUse" x="1" y="1" width="14" height="14">
<path fill-rule="evenodd" clip-rule="evenodd" d="M15 14.295L11.225 10.5C13.0997 8.23806 12.8658 4.90218 10.6938 2.92402C8.52178 0.94587 5.17861 1.0239 3.10128 3.10124C1.02394 5.17857 0.94591 8.52174 2.92406 10.6937C4.90222 12.8657 8.2381 13.0996 10.5 11.225L14.295 15L15 14.295ZM2.50001 7C2.50001 4.51472 4.51473 2.5 7.00001 2.5C9.48529 2.5 11.5 4.51472 11.5 7C11.5 9.48528 9.48529 11.5 7.00001 11.5C4.51473 11.5 2.50001 9.48528 2.50001 7Z" fill="white"/>
</mask>
<g mask="url(#masks)">
</g>
</svg>
